<svg width="73" height="72" viewBox="0 0 73 72" fill="none" xmlns="http://www.w3.org/2000/svg">
<path fill-rule="evenodd" clip-rule="evenodd" d="M36.5 72C56.3823 72 72.5 55.8823 72.5 36C72.5 16.1177 56.3823 0 36.5 0C16.6177 0 0.5 16.1177 0.5 36C0.5 55.8823 16.6177 72 36.5 72ZM49.5 38.7607V24.9743C49.5 23.331 48.2045 22 46.605 22H32.1297C30.5317 22 29.2347 23.331 29.2347 24.9743V39.8984C29.174 39.8607 29.1161 39.8245 29.0604 39.7897C28.2223 39.2653 27.8992 39.0631 26.5133 39.0966C23.3852 39.171 20.6306 41.598 20.5047 44.8088C20.3758 48.1401 22.938 50.8931 26.1283 50.9972C29.4605 51.1057 32.1297 48.1297 32.1297 44.7047V29.4359C32.1297 28.6149 32.7782 27.9487 33.5772 27.9487H45.1574C45.9565 27.9487 46.605 28.6149 46.605 29.4359V33.9494C46.2511 33.8257 45.9584 33.715 45.7026 33.6183C44.8818 33.3079 44.4419 33.1415 43.5854 33.154C41.2317 33.1911 39.0272 34.6797 38.2397 36.9581C36.811 41.091 39.7365 44.9517 43.5376 45.0499C46.8554 45.1347 49.5 42.1693 49.5 38.7607Z" fill="white"/>
</svg>
