<svg width="15" height="16" viewBox="0 0 15 16" fill="none" xmlns="http://www.w3.org/2000/svg">
<path d="M6.85492 12.0897C9.68429 11.676 11.8749 9.38037 11.8749 6.57037C11.8753 6.1682 11.8301 5.7673 11.7399 5.37537C12.9487 6.09537 13.7499 7.35162 13.7499 8.78099C13.749 9.56559 13.5061 10.3308 13.0543 10.9722C13.0918 11.5654 13.3018 12.0854 13.6855 12.5329C13.7205 12.5732 13.7426 12.623 13.7491 12.676C13.7556 12.729 13.7462 12.7827 13.722 12.8303C13.6979 12.8779 13.6602 12.9172 13.6136 12.9433C13.567 12.9693 13.5137 12.9809 13.4605 12.9766C12.6062 12.9072 11.9074 12.7104 11.3643 12.386C10.742 12.6787 10.0626 12.8296 9.37492 12.8279C8.48104 12.8319 7.60536 12.5754 6.85492 12.0897Z" fill="#A5A5A5"/>
<path d="M4.76553 10.7698C5.14053 10.8585 5.53303 10.906 5.93741 10.906C8.52616 10.906 10.6249 8.96476 10.6249 6.56976C10.6249 4.17601 8.52616 2.23413 5.93741 2.23413C3.34866 2.23413 1.24991 4.17538 1.24991 6.57038C1.24991 7.78663 1.79116 8.88601 2.66366 9.67351C2.58976 10.204 2.36279 10.7013 2.01053 11.1048C1.97302 11.1479 1.94925 11.2013 1.94226 11.2581C1.93526 11.3149 1.94536 11.3725 1.97126 11.4235C1.99717 11.4745 2.0377 11.5166 2.08767 11.5444C2.13764 11.5723 2.19478 11.5846 2.25178 11.5798C3.31428 11.4935 4.15241 11.2235 4.76553 10.7698Z" fill="#A5A5A5"/>
</svg>
