<svg width="13" height="11" viewBox="0 0 13 11" fill="none" xmlns="http://www.w3.org/2000/svg">
<path fill-rule="evenodd" clip-rule="evenodd" d="M0.249939 5.85913C0.249939 6.88376 0.515539 7.22882 1.04675 7.91894C2.10741 9.29688 3.88626 10.8591 6.49994 10.8591C9.11363 10.8591 10.8924 9.29688 11.9531 7.91894C12.4843 7.22882 12.7499 6.88376 12.7499 5.85913C12.7499 4.83451 12.4843 4.48946 11.9531 3.79934C10.8924 2.42136 9.11363 0.859131 6.49994 0.859131C3.88626 0.859131 2.10741 2.42136 1.04675 3.79934C0.515539 4.48946 0.249939 4.83451 0.249939 5.85913ZM6.49994 3.51538C5.20552 3.51538 4.15619 4.56471 4.15619 5.85913C4.15619 7.15357 5.20552 8.20288 6.49994 8.20288C7.79438 8.20288 8.84369 7.15357 8.84369 5.85913C8.84369 4.56471 7.79438 3.51538 6.49994 3.51538Z" fill="#A5A5A5"/>
</svg>
