<svg width="29" height="29" viewBox="0 0 29 29" fill="none" xmlns="http://www.w3.org/2000/svg">
<path fill-rule="evenodd" clip-rule="evenodd" d="M6.23939 14.4999C6.23939 13.579 6.39234 12.6961 6.66533 11.868L1.88708 8.21918C0.95583 10.11 0.431152 12.2405 0.431152 14.4999C0.431152 16.7574 0.955185 18.8867 1.88515 20.7762L6.66081 17.1202C6.39041 16.296 6.23939 15.4163 6.23939 14.4999Z" fill="#FBBC05"/>
<path fill-rule="evenodd" clip-rule="evenodd" d="M14.6292 6.12214C16.6298 6.12214 18.4368 6.83103 19.8566 7.99103L23.9869 3.86659C21.47 1.67548 18.2432 0.322144 14.6292 0.322144C9.01843 0.322144 4.1963 3.53083 1.88721 8.21917L6.66545 11.868C7.76643 8.52592 10.9048 6.12214 14.6292 6.12214Z" fill="#EB4335"/>
<path fill-rule="evenodd" clip-rule="evenodd" d="M14.6292 22.8777C10.9048 22.8777 7.76643 20.4739 6.66545 17.1318L1.88721 20.78C4.1963 25.469 9.01843 28.6777 14.6292 28.6777C18.0922 28.6777 21.3984 27.4481 23.8798 25.1442L19.3442 21.6378C18.0644 22.444 16.453 22.8777 14.6292 22.8777Z" fill="#34A853"/>
<path fill-rule="evenodd" clip-rule="evenodd" d="M28.1815 14.5C28.1815 13.6622 28.0524 12.76 27.8588 11.9222H14.6289V17.4H22.2442C21.8634 19.2676 20.8269 20.7034 19.3439 21.6378L23.8795 25.1442C26.4861 22.725 28.1815 19.1213 28.1815 14.5Z" fill="#4285F4"/>
</svg>
